<?xml version="1.0" encoding="UTF-8"?>
<svg xmlns="http://www.w3.org/2000/svg" xmlns:xlink="http://www.w3.org/1999/xlink" width="600" height="450" viewBox="0 0 600 450">
<defs>
<g>
<g id="glyph-0-0-54225637">
<path d="M 10.109375 -3.5 C 10.109375 -3.65625 9.984375 -3.78125 9.828125 -3.78125 L 1.0625 -3.78125 C 0.90625 -3.78125 0.78125 -3.65625 0.78125 -3.5 C 0.78125 -3.34375 0.90625 -3.21875 1.0625 -3.21875 L 9.828125 -3.21875 C 9.984375 -3.21875 10.109375 -3.34375 10.109375 -3.5 Z M 10.109375 -3.5 "/>
</g>
<g id="glyph-1-0-54225637">
<path d="M 6.390625 -2.390625 C 6.390625 -3.546875 5.515625 -4.640625 4.0625 -4.921875 C 5.203125 -5.3125 6.015625 -6.28125 6.015625 -7.390625 C 6.015625 -8.546875 4.78125 -9.328125 3.4375 -9.328125 C 2.03125 -9.328125 0.96875 -8.484375 0.96875 -7.421875 C 0.96875 -6.953125 1.28125 -6.6875 1.6875 -6.6875 C 2.109375 -6.6875 2.390625 -7 2.390625 -7.40625 C 2.390625 -8.109375 1.734375 -8.109375 1.53125 -8.109375 C 1.953125 -8.796875 2.890625 -8.96875 3.390625 -8.96875 C 3.96875 -8.96875 4.734375 -8.671875 4.734375 -7.40625 C 4.734375 -7.234375 4.703125 -6.421875 4.34375 -5.8125 C 3.921875 -5.140625 3.4375 -5.09375 3.09375 -5.078125 C 2.984375 -5.0625 2.640625 -5.046875 2.546875 -5.046875 C 2.4375 -5.03125 2.34375 -5.015625 2.34375 -4.875 C 2.34375 -4.71875 2.4375 -4.71875 2.671875 -4.71875 L 3.296875 -4.71875 C 4.4375 -4.71875 4.953125 -3.765625 4.953125 -2.390625 C 4.953125 -0.484375 3.984375 -0.078125 3.375 -0.078125 C 2.765625 -0.078125 1.71875 -0.328125 1.234375 -1.140625 C 1.71875 -1.078125 2.15625 -1.390625 2.15625 -1.921875 C 2.15625 -2.421875 1.78125 -2.703125 1.375 -2.703125 C 1.03125 -2.703125 0.59375 -2.5 0.59375 -1.890625 C 0.59375 -0.609375 1.890625 0.3125 3.421875 0.3125 C 5.125 0.3125 6.390625 -0.96875 6.390625 -2.390625 Z M 6.390625 -2.390625 "/>
</g>
<g id="glyph-1-1-54225637">
<path d="M 10.109375 -3.5 C 10.109375 -3.65625 9.984375 -3.78125 9.828125 -3.78125 L 1.0625 -3.78125 C 0.90625 -3.78125 0.78125 -3.65625 0.78125 -3.5 C 0.78125 -3.34375 0.90625 -3.21875 1.0625 -3.21875 L 9.828125 -3.21875 C 9.984375 -3.21875 10.109375 -3.34375 10.109375 -3.5 Z M 10.109375 -3.5 "/>
</g>
<g id="glyph-1-2-54225637">
<path d="M 6.28125 -2.4375 L 5.9375 -2.4375 C 5.859375 -2.015625 5.765625 -1.40625 5.625 -1.1875 C 5.53125 -1.078125 4.609375 -1.078125 4.296875 -1.078125 L 1.78125 -1.078125 L 3.265625 -2.515625 C 5.453125 -4.453125 6.28125 -5.203125 6.28125 -6.609375 C 6.28125 -8.203125 5.03125 -9.328125 3.3125 -9.328125 C 1.734375 -9.328125 0.703125 -8.03125 0.703125 -6.796875 C 0.703125 -6 1.40625 -6 1.4375 -6 C 1.6875 -6 2.171875 -6.171875 2.171875 -6.75 C 2.171875 -7.109375 1.921875 -7.46875 1.421875 -7.46875 C 1.3125 -7.46875 1.28125 -7.46875 1.25 -7.46875 C 1.5625 -8.375 2.328125 -8.890625 3.140625 -8.890625 C 4.40625 -8.890625 5.015625 -7.75 5.015625 -6.609375 C 5.015625 -5.484375 4.3125 -4.375 3.546875 -3.515625 L 0.859375 -0.515625 C 0.703125 -0.359375 0.703125 -0.34375 0.703125 0 L 5.890625 0 Z M 6.28125 -2.4375 "/>
</g>
<g id="glyph-1-3-54225637">
<path d="M 5.859375 0 L 5.859375 -0.4375 L 5.421875 -0.4375 C 4.15625 -0.4375 4.109375 -0.59375 4.109375 -1.109375 L 4.109375 -8.953125 C 4.109375 -9.296875 4.109375 -9.328125 3.796875 -9.328125 C 2.921875 -8.421875 1.6875 -8.421875 1.25 -8.421875 L 1.25 -8 C 1.53125 -8 2.359375 -8 3.078125 -8.359375 L 3.078125 -1.109375 C 3.078125 -0.609375 3.03125 -0.4375 1.78125 -0.4375 L 1.328125 -0.4375 L 1.328125 0 C 1.8125 -0.046875 3.03125 -0.046875 3.59375 -0.046875 C 4.15625 -0.046875 5.375 -0.046875 5.859375 0 Z M 5.859375 0 "/>
</g>
<g id="glyph-1-4-54225637">
<path d="M 6.4375 -4.484375 C 6.4375 -5.59375 6.375 -6.71875 5.875 -7.75 C 5.234375 -9.09375 4.09375 -9.328125 3.5 -9.328125 C 2.65625 -9.328125 1.640625 -8.953125 1.0625 -7.65625 C 0.609375 -6.6875 0.546875 -5.59375 0.546875 -4.484375 C 0.546875 -3.4375 0.609375 -2.171875 1.171875 -1.109375 C 1.78125 0.03125 2.796875 0.3125 3.484375 0.3125 C 4.234375 0.3125 5.3125 0.015625 5.921875 -1.3125 C 6.375 -2.28125 6.4375 -3.375 6.4375 -4.484375 Z M 5.28125 -4.640625 C 5.28125 -3.59375 5.28125 -2.640625 5.125 -1.75 C 4.90625 -0.421875 4.109375 0 3.484375 0 C 2.9375 0 2.109375 -0.34375 1.859375 -1.6875 C 1.703125 -2.53125 1.703125 -3.828125 1.703125 -4.640625 C 1.703125 -5.546875 1.703125 -6.46875 1.8125 -7.21875 C 2.09375 -8.890625 3.140625 -9.015625 3.484375 -9.015625 C 3.953125 -9.015625 4.875 -8.765625 5.140625 -7.375 C 5.28125 -6.59375 5.28125 -5.53125 5.28125 -4.640625 Z M 5.28125 -4.640625 "/>
</g>
<g id="glyph-1-5-54225637">
<path d="M 6.28125 -2.8125 C 6.28125 -4.484375 5.140625 -5.875 3.625 -5.875 C 2.953125 -5.875 2.359375 -5.65625 1.84375 -5.171875 L 1.84375 -7.890625 C 2.125 -7.8125 2.59375 -7.71875 3.03125 -7.71875 C 4.765625 -7.71875 5.734375 -8.984375 5.734375 -9.171875 C 5.734375 -9.25 5.703125 -9.328125 5.59375 -9.328125 C 5.59375 -9.328125 5.5625 -9.328125 5.484375 -9.28125 C 5.203125 -9.15625 4.515625 -8.875 3.578125 -8.875 C 3.03125 -8.875 2.375 -8.96875 1.71875 -9.265625 C 1.609375 -9.3125 1.546875 -9.3125 1.546875 -9.3125 C 1.40625 -9.3125 1.40625 -9.203125 1.40625 -8.96875 L 1.40625 -4.828125 C 1.40625 -4.578125 1.40625 -4.46875 1.609375 -4.46875 C 1.703125 -4.46875 1.734375 -4.515625 1.796875 -4.59375 C 1.953125 -4.8125 2.46875 -5.578125 3.59375 -5.578125 C 4.328125 -5.578125 4.671875 -4.921875 4.78125 -4.671875 C 5.015625 -4.15625 5.046875 -3.609375 5.046875 -2.90625 C 5.046875 -2.421875 5.046875 -1.578125 4.703125 -1 C 4.375 -0.453125 3.84375 -0.078125 3.203125 -0.078125 C 2.1875 -0.078125 1.390625 -0.828125 1.140625 -1.65625 C 1.1875 -1.640625 1.234375 -1.625 1.390625 -1.625 C 1.84375 -1.625 2.09375 -1.96875 2.09375 -2.3125 C 2.09375 -2.640625 1.84375 -3 1.390625 -3 C 1.1875 -3 0.703125 -2.890625 0.703125 -2.25 C 0.703125 -1.046875 1.671875 0.3125 3.234375 0.3125 C 4.859375 0.3125 6.28125 -1.03125 6.28125 -2.8125 Z M 6.28125 -2.8125 "/>
</g>
<g id="glyph-1-6-54225637">
<path d="M 3.859375 -2.625 L 3.859375 -3.4375 L 0.15625 -3.4375 L 0.15625 -2.625 Z M 3.859375 -2.625 "/>
</g>
<g id="glyph-1-7-54225637">
<path d="M 2.6875 -0.734375 C 2.6875 -1.140625 2.359375 -1.484375 1.953125 -1.484375 C 1.546875 -1.484375 1.203125 -1.140625 1.203125 -0.734375 C 1.203125 -0.34375 1.546875 0 1.953125 0 C 2.359375 0 2.6875 -0.34375 2.6875 -0.734375 Z M 2.6875 -0.734375 "/>
</g>
<g id="glyph-1-8-54225637">
<path d="M 5.8125 -1.671875 C 5.8125 -1.8125 5.703125 -1.828125 5.625 -1.828125 C 5.5 -1.828125 5.46875 -1.75 5.453125 -1.640625 C 4.953125 -0.203125 3.703125 -0.203125 3.5625 -0.203125 C 2.859375 -0.203125 2.296875 -0.609375 1.96875 -1.140625 C 1.546875 -1.8125 1.546875 -2.734375 1.546875 -3.234375 L 5.453125 -3.234375 C 5.765625 -3.234375 5.8125 -3.234375 5.8125 -3.53125 C 5.8125 -4.90625 5.046875 -6.265625 3.296875 -6.265625 C 1.6875 -6.265625 0.390625 -4.828125 0.390625 -3.078125 C 0.390625 -1.203125 1.859375 0.15625 3.46875 0.15625 C 5.1875 0.15625 5.8125 -1.40625 5.8125 -1.671875 Z M 4.890625 -3.53125 L 1.5625 -3.53125 C 1.65625 -5.609375 2.828125 -5.96875 3.296875 -5.96875 C 4.75 -5.96875 4.890625 -4.078125 4.890625 -3.53125 Z M 4.890625 -3.53125 "/>
</g>
<g id="glyph-1-9-54225637">
<path d="M 6.796875 -9.015625 L 3.390625 -9.015625 C 1.6875 -9.015625 1.65625 -9.203125 1.59375 -9.46875 L 1.25 -9.46875 L 0.78125 -6.578125 L 1.140625 -6.578125 C 1.171875 -6.796875 1.296875 -7.6875 1.484375 -7.859375 C 1.578125 -7.9375 2.671875 -7.9375 2.859375 -7.9375 L 5.75 -7.9375 L 4.1875 -5.71875 C 2.921875 -3.84375 2.46875 -1.890625 2.46875 -0.46875 C 2.46875 -0.328125 2.46875 0.3125 3.109375 0.3125 C 3.75 0.3125 3.75 -0.328125 3.75 -0.46875 L 3.75 -1.171875 C 3.75 -1.953125 3.796875 -2.71875 3.90625 -3.46875 C 3.96875 -3.796875 4.15625 -5 4.78125 -5.859375 L 6.65625 -8.53125 C 6.796875 -8.6875 6.796875 -8.71875 6.796875 -9.015625 Z M 6.796875 -9.015625 "/>
</g>
<g id="glyph-1-10-54225637">
<path d="M 6.390625 -2.859375 C 6.390625 -4.640625 5.15625 -5.984375 3.59375 -5.984375 C 2.640625 -5.984375 2.125 -5.265625 1.84375 -4.59375 L 1.84375 -4.921875 C 1.84375 -8.46875 3.578125 -8.96875 4.296875 -8.96875 C 4.640625 -8.96875 5.21875 -8.890625 5.53125 -8.40625 C 5.3125 -8.40625 4.765625 -8.40625 4.765625 -7.78125 C 4.765625 -7.34375 5.09375 -7.140625 5.40625 -7.140625 C 5.625 -7.140625 6.046875 -7.265625 6.046875 -7.8125 C 6.046875 -8.65625 5.4375 -9.328125 4.265625 -9.328125 C 2.484375 -9.328125 0.59375 -7.515625 0.59375 -4.421875 C 0.59375 -0.6875 2.21875 0.3125 3.515625 0.3125 C 5.0625 0.3125 6.390625 -1.015625 6.390625 -2.859375 Z M 5.140625 -2.875 C 5.140625 -2.203125 5.140625 -1.5 4.90625 -1 C 4.484375 -0.15625 3.84375 -0.078125 3.515625 -0.078125 C 2.625 -0.078125 2.21875 -0.921875 2.125 -1.140625 C 1.875 -1.796875 1.875 -2.90625 1.875 -3.15625 C 1.875 -4.25 2.328125 -5.65625 3.578125 -5.65625 C 3.8125 -5.65625 4.453125 -5.65625 4.890625 -4.78125 C 5.140625 -4.265625 5.140625 -3.5625 5.140625 -2.875 Z M 5.140625 -2.875 "/>
</g>
<g id="glyph-1-11-54225637">
<path d="M 6.59375 -2.3125 L 6.59375 -2.75 L 5.1875 -2.75 L 5.1875 -9.109375 C 5.1875 -9.390625 5.1875 -9.484375 4.96875 -9.484375 C 4.84375 -9.484375 4.796875 -9.484375 4.6875 -9.3125 L 0.390625 -2.75 L 0.390625 -2.3125 L 4.109375 -2.3125 L 4.109375 -1.09375 C 4.109375 -0.59375 4.09375 -0.4375 3.046875 -0.4375 L 2.765625 -0.4375 L 2.765625 0 C 3.328125 -0.046875 4.0625 -0.046875 4.640625 -0.046875 C 5.234375 -0.046875 5.984375 -0.046875 6.546875 0 L 6.546875 -0.4375 L 6.265625 -0.4375 C 5.21875 -0.4375 5.1875 -0.59375 5.1875 -1.09375 L 5.1875 -2.3125 Z M 4.203125 -2.75 L 0.78125 -2.75 L 4.203125 -7.96875 Z M 4.203125 -2.75 "/>
</g>
<g id="glyph-1-12-54225637">
<path d="M 6.984375 -2.609375 C 6.984375 -4 6.0625 -5.15625 4.890625 -5.4375 L 3.09375 -5.859375 C 2.21875 -6.078125 1.6875 -6.828125 1.6875 -7.640625 C 1.6875 -8.625 2.4375 -9.484375 3.53125 -9.484375 C 5.859375 -9.484375 6.171875 -7.1875 6.265625 -6.546875 C 6.265625 -6.46875 6.265625 -6.390625 6.421875 -6.390625 C 6.609375 -6.390625 6.609375 -6.453125 6.609375 -6.71875 L 6.609375 -9.53125 C 6.609375 -9.765625 6.609375 -9.875 6.453125 -9.875 C 6.359375 -9.875 6.34375 -9.859375 6.25 -9.6875 L 5.75 -8.890625 C 5.328125 -9.296875 4.765625 -9.875 3.515625 -9.875 C 1.953125 -9.875 0.78125 -8.640625 0.78125 -7.15625 C 0.78125 -5.984375 1.53125 -4.96875 2.625 -4.59375 C 2.765625 -4.53125 3.484375 -4.375 4.46875 -4.125 C 4.84375 -4.03125 5.265625 -3.9375 5.65625 -3.421875 C 5.953125 -3.046875 6.09375 -2.59375 6.09375 -2.125 C 6.09375 -1.140625 5.390625 -0.125 4.21875 -0.125 C 3.8125 -0.125 2.75 -0.203125 2 -0.875 C 1.1875 -1.640625 1.140625 -2.53125 1.140625 -3.03125 C 1.125 -3.171875 1.015625 -3.171875 0.96875 -3.171875 C 0.78125 -3.171875 0.78125 -3.078125 0.78125 -2.828125 L 0.78125 -0.03125 C 0.78125 0.203125 0.78125 0.3125 0.9375 0.3125 C 1.03125 0.3125 1.046875 0.28125 1.140625 0.125 C 1.140625 0.125 1.1875 0.0625 1.65625 -0.671875 C 2.09375 -0.203125 2.984375 0.3125 4.234375 0.3125 C 5.859375 0.3125 6.984375 -1.0625 6.984375 -2.609375 Z M 6.984375 -2.609375 "/>
</g>
<g id="glyph-1-13-54225637">
<path d="M 6.765625 -1.25 L 6.765625 -2.03125 L 6.40625 -2.03125 L 6.40625 -1.25 C 6.40625 -0.4375 6.0625 -0.34375 5.90625 -0.34375 C 5.453125 -0.34375 5.390625 -0.984375 5.390625 -1.046875 L 5.390625 -3.84375 C 5.390625 -4.4375 5.390625 -4.984375 4.890625 -5.5 C 4.34375 -6.046875 3.640625 -6.265625 2.96875 -6.265625 C 1.8125 -6.265625 0.859375 -5.609375 0.859375 -4.6875 C 0.859375 -4.265625 1.140625 -4.03125 1.5 -4.03125 C 1.890625 -4.03125 2.140625 -4.3125 2.140625 -4.671875 C 2.140625 -4.84375 2.078125 -5.3125 1.421875 -5.3125 C 1.8125 -5.8125 2.484375 -5.96875 2.9375 -5.96875 C 3.625 -5.96875 4.421875 -5.421875 4.421875 -4.171875 L 4.421875 -3.65625 C 3.703125 -3.609375 2.734375 -3.5625 1.84375 -3.15625 C 0.796875 -2.671875 0.453125 -1.953125 0.453125 -1.328125 C 0.453125 -0.203125 1.8125 0.15625 2.6875 0.15625 C 3.609375 0.15625 4.25 -0.40625 4.515625 -1.0625 C 4.578125 -0.5 4.953125 0.078125 5.609375 0.078125 C 5.90625 0.078125 6.765625 -0.109375 6.765625 -1.25 Z M 4.421875 -1.953125 C 4.421875 -0.625 3.421875 -0.15625 2.78125 -0.15625 C 2.09375 -0.15625 1.53125 -0.640625 1.53125 -1.34375 C 1.53125 -2.109375 2.109375 -3.28125 4.421875 -3.359375 Z M 4.421875 -1.953125 "/>
</g>
<g id="glyph-1-14-54225637">
<path d="M 11.375 0 L 11.375 -0.4375 C 10.65625 -0.4375 10.296875 -0.4375 10.296875 -0.859375 L 10.296875 -3.53125 C 10.296875 -4.734375 10.296875 -5.171875 9.859375 -5.671875 C 9.65625 -5.90625 9.203125 -6.1875 8.390625 -6.1875 C 7.203125 -6.1875 6.59375 -5.34375 6.359375 -4.8125 C 6.15625 -6.03125 5.125 -6.1875 4.5 -6.1875 C 3.46875 -6.1875 2.8125 -5.59375 2.421875 -4.71875 L 2.421875 -6.1875 L 0.453125 -6.03125 L 0.453125 -5.59375 C 1.421875 -5.59375 1.546875 -5.5 1.546875 -4.8125 L 1.546875 -1.0625 C 1.546875 -0.4375 1.390625 -0.4375 0.453125 -0.4375 L 0.453125 0 L 2.03125 -0.046875 L 3.59375 0 L 3.59375 -0.4375 C 2.65625 -0.4375 2.5 -0.4375 2.5 -1.0625 L 2.5 -3.640625 C 2.5 -5.09375 3.5 -5.875 4.390625 -5.875 C 5.28125 -5.875 5.4375 -5.125 5.4375 -4.328125 L 5.4375 -1.0625 C 5.4375 -0.4375 5.28125 -0.4375 4.34375 -0.4375 L 4.34375 0 L 5.921875 -0.046875 L 7.484375 0 L 7.484375 -0.4375 C 6.546875 -0.4375 6.390625 -0.4375 6.390625 -1.0625 L 6.390625 -3.640625 C 6.390625 -5.09375 7.390625 -5.875 8.28125 -5.875 C 9.171875 -5.875 9.328125 -5.125 9.328125 -4.328125 L 9.328125 -1.0625 C 9.328125 -0.4375 9.171875 -0.4375 8.234375 -0.4375 L 8.234375 0 L 9.8125 -0.046875 Z M 11.375 0 "/>
</g>
<g id="glyph-1-15-54225637">
<path d="M 7.296875 -3.03125 C 7.296875 -4.796875 5.9375 -6.1875 4.375 -6.1875 C 3.28125 -6.1875 2.6875 -5.578125 2.40625 -5.265625 L 2.40625 -6.1875 L 0.390625 -6.03125 L 0.390625 -5.59375 C 1.390625 -5.59375 1.484375 -5.515625 1.484375 -4.90625 L 1.484375 1.65625 C 1.484375 2.28125 1.328125 2.28125 0.390625 2.28125 L 0.390625 2.71875 L 1.953125 2.671875 L 3.546875 2.71875 L 3.546875 2.28125 C 2.609375 2.28125 2.453125 2.28125 2.453125 1.65625 L 2.453125 -0.828125 C 2.515625 -0.609375 3.109375 0.15625 4.171875 0.15625 C 5.84375 0.15625 7.296875 -1.21875 7.296875 -3.03125 Z M 6.125 -3.03125 C 6.125 -1.328125 5.15625 -0.15625 4.109375 -0.15625 C 3.5625 -0.15625 3.03125 -0.4375 2.640625 -1.015625 C 2.453125 -1.296875 2.453125 -1.3125 2.453125 -1.59375 L 2.453125 -4.71875 C 2.859375 -5.4375 3.546875 -5.84375 4.25 -5.84375 C 5.28125 -5.84375 6.125 -4.609375 6.125 -3.03125 Z M 6.125 -3.03125 "/>
</g>
<g id="glyph-1-16-54225637">
<path d="M 3.5625 0 L 3.5625 -0.4375 C 2.625 -0.4375 2.484375 -0.4375 2.484375 -1.0625 L 2.484375 -9.71875 L 0.46875 -9.5625 L 0.46875 -9.125 C 1.4375 -9.125 1.546875 -9.03125 1.546875 -8.34375 L 1.546875 -1.0625 C 1.546875 -0.4375 1.40625 -0.4375 0.46875 -0.4375 L 0.46875 0 L 2.015625 -0.046875 Z M 3.5625 0 "/>
</g>
<g id="glyph-1-17-54225637">
<path d="M 7.375 0 L 7.375 -0.4375 C 6.390625 -0.4375 6.28125 -0.53125 6.28125 -1.21875 L 6.28125 -9.71875 L 4.265625 -9.5625 L 4.265625 -9.125 C 5.25 -9.125 5.359375 -9.03125 5.359375 -8.34375 L 5.359375 -5.3125 C 4.953125 -5.828125 4.359375 -6.1875 3.59375 -6.1875 C 1.953125 -6.1875 0.46875 -4.8125 0.46875 -3.015625 C 0.46875 -1.234375 1.84375 0.15625 3.4375 0.15625 C 4.34375 0.15625 4.96875 -0.328125 5.3125 -0.765625 L 5.3125 0.15625 Z M 5.3125 -1.65625 C 5.3125 -1.40625 5.3125 -1.375 5.171875 -1.140625 C 4.75 -0.46875 4.109375 -0.15625 3.515625 -0.15625 C 2.890625 -0.15625 2.375 -0.515625 2.046875 -1.046875 C 1.6875 -1.625 1.640625 -2.421875 1.640625 -3 C 1.640625 -3.515625 1.671875 -4.359375 2.078125 -4.984375 C 2.359375 -5.421875 2.890625 -5.875 3.65625 -5.875 C 4.140625 -5.875 4.734375 -5.671875 5.171875 -5.046875 C 5.3125 -4.796875 5.3125 -4.78125 5.3125 -4.515625 Z M 5.3125 -1.65625 "/>
</g>
<g id="glyph-1-18-54225637">
</g>
<g id="glyph-1-19-54225637">
<path d="M 7.484375 0 L 7.484375 -0.4375 C 6.765625 -0.4375 6.40625 -0.4375 6.390625 -0.859375 L 6.390625 -3.53125 C 6.390625 -4.734375 6.390625 -5.171875 5.96875 -5.671875 C 5.765625 -5.90625 5.3125 -6.1875 4.5 -6.1875 C 3.46875 -6.1875 2.8125 -5.59375 2.421875 -4.71875 L 2.421875 -6.1875 L 0.453125 -6.03125 L 0.453125 -5.59375 C 1.421875 -5.59375 1.546875 -5.5 1.546875 -4.8125 L 1.546875 -1.0625 C 1.546875 -0.4375 1.390625 -0.4375 0.453125 -0.4375 L 0.453125 0 L 2.03125 -0.046875 L 3.59375 0 L 3.59375 -0.4375 C 2.65625 -0.4375 2.5 -0.4375 2.5 -1.0625 L 2.5 -3.640625 C 2.5 -5.09375 3.5 -5.875 4.390625 -5.875 C 5.28125 -5.875 5.4375 -5.125 5.4375 -4.328125 L 5.4375 -1.0625 C 5.4375 -0.4375 5.28125 -0.4375 4.34375 -0.4375 L 4.34375 0 L 5.921875 -0.046875 Z M 7.484375 0 "/>
</g>
<g id="glyph-1-20-54225637">
<path d="M 5.046875 -1.796875 C 5.046875 -2.53125 4.625 -2.953125 4.453125 -3.125 C 3.984375 -3.5625 3.4375 -3.6875 2.859375 -3.796875 C 2.078125 -3.953125 1.140625 -4.125 1.140625 -4.9375 C 1.140625 -5.4375 1.5 -6 2.703125 -6 C 4.234375 -6 4.3125 -4.75 4.34375 -4.3125 C 4.359375 -4.1875 4.515625 -4.1875 4.515625 -4.1875 C 4.6875 -4.1875 4.6875 -4.25 4.6875 -4.515625 L 4.6875 -5.9375 C 4.6875 -6.171875 4.6875 -6.265625 4.53125 -6.265625 C 4.46875 -6.265625 4.4375 -6.265625 4.25 -6.109375 C 4.21875 -6.046875 4.078125 -5.921875 4.015625 -5.875 C 3.484375 -6.265625 2.90625 -6.265625 2.703125 -6.265625 C 1 -6.265625 0.46875 -5.328125 0.46875 -4.546875 C 0.46875 -4.0625 0.6875 -3.671875 1.0625 -3.359375 C 1.515625 -3 1.90625 -2.90625 2.90625 -2.71875 C 3.21875 -2.65625 4.375 -2.4375 4.375 -1.421875 C 4.375 -0.71875 3.875 -0.15625 2.78125 -0.15625 C 1.609375 -0.15625 1.109375 -0.953125 0.84375 -2.140625 C 0.796875 -2.328125 0.78125 -2.375 0.640625 -2.375 C 0.46875 -2.375 0.46875 -2.28125 0.46875 -2.03125 L 0.46875 -0.1875 C 0.46875 0.0625 0.46875 0.15625 0.609375 0.15625 C 0.6875 0.15625 0.703125 0.140625 0.96875 -0.125 C 1 -0.15625 1 -0.1875 1.25 -0.453125 C 1.859375 0.140625 2.484375 0.15625 2.78125 0.15625 C 4.390625 0.15625 5.046875 -0.78125 5.046875 -1.796875 Z M 5.046875 -1.796875 "/>
</g>
<g id="glyph-1-21-54225637">
<path d="M 7.109375 -5.59375 L 7.109375 -6.03125 C 6.796875 -6 6.390625 -5.984375 6.0625 -5.984375 L 4.84375 -6.03125 L 4.84375 -5.59375 C 5.28125 -5.59375 5.5 -5.34375 5.5 -5 C 5.5 -4.859375 5.484375 -4.828125 5.421875 -4.65625 L 4 -1.21875 L 2.453125 -4.984375 C 2.390625 -5.125 2.359375 -5.1875 2.359375 -5.234375 C 2.359375 -5.59375 2.890625 -5.59375 3.15625 -5.59375 L 3.15625 -6.03125 L 1.625 -5.984375 C 1.25 -5.984375 0.6875 -6 0.265625 -6.03125 L 0.265625 -5.59375 C 0.9375 -5.59375 1.203125 -5.59375 1.40625 -5.109375 L 3.5 0 L 3.15625 0.828125 C 2.84375 1.59375 2.453125 2.5625 1.546875 2.5625 C 1.484375 2.5625 1.15625 2.5625 0.890625 2.3125 C 1.328125 2.25 1.4375 1.953125 1.4375 1.71875 C 1.4375 1.359375 1.171875 1.140625 0.859375 1.140625 C 0.578125 1.140625 0.265625 1.3125 0.265625 1.734375 C 0.265625 2.359375 0.859375 2.875 1.546875 2.875 C 2.4375 2.875 3.015625 2.078125 3.34375 1.28125 L 5.8125 -4.703125 C 6.171875 -5.59375 6.890625 -5.59375 7.109375 -5.59375 Z M 7.109375 -5.59375 "/>
</g>
<g id="glyph-1-22-54225637">
<path d="M 10.03125 -9.125 L 10.03125 -9.5625 L 8.375 -9.515625 L 6.703125 -9.5625 L 6.703125 -9.125 C 8.140625 -9.125 8.140625 -8.46875 8.140625 -8.09375 L 8.140625 -3.234375 C 8.140625 -1.25 6.796875 -0.125 5.453125 -0.125 C 4.796875 -0.125 3.15625 -0.46875 3.15625 -3.140625 L 3.15625 -8.46875 C 3.15625 -8.96875 3.171875 -9.125 4.25 -9.125 L 4.59375 -9.125 L 4.59375 -9.5625 C 4.109375 -9.515625 3.0625 -9.515625 2.53125 -9.515625 C 2 -9.515625 0.953125 -9.515625 0.46875 -9.5625 L 0.46875 -9.125 L 0.796875 -9.125 C 1.875 -9.125 1.90625 -8.96875 1.90625 -8.46875 L 1.90625 -3.1875 C 1.90625 -1.21875 3.53125 0.3125 5.4375 0.3125 C 7.046875 0.3125 8.296875 -1 8.546875 -2.59375 C 8.578125 -2.875 8.578125 -3 8.578125 -3.5625 L 8.578125 -8.03125 C 8.578125 -8.5 8.578125 -9.125 10.03125 -9.125 Z M 10.03125 -9.125 "/>
</g>
<g id="glyph-1-23-54225637">
<path d="M 6.59375 -3 C 6.59375 -4.78125 5.1875 -6.265625 3.5 -6.265625 C 1.75 -6.265625 0.390625 -4.75 0.390625 -3 C 0.390625 -1.1875 1.84375 0.15625 3.484375 0.15625 C 5.1875 0.15625 6.59375 -1.21875 6.59375 -3 Z M 5.4375 -3.109375 C 5.4375 -2.609375 5.4375 -1.84375 5.125 -1.234375 C 4.8125 -0.609375 4.203125 -0.203125 3.5 -0.203125 C 2.890625 -0.203125 2.28125 -0.484375 1.90625 -1.140625 C 1.546875 -1.75 1.546875 -2.609375 1.546875 -3.109375 C 1.546875 -3.65625 1.546875 -4.40625 1.890625 -5.03125 C 2.265625 -5.671875 2.921875 -5.96875 3.484375 -5.96875 C 4.109375 -5.96875 4.703125 -5.65625 5.0625 -5.046875 C 5.4375 -4.453125 5.4375 -3.640625 5.4375 -3.109375 Z M 5.4375 -3.109375 "/>
</g>
<g id="glyph-1-24-54225637">
<path d="M 5.09375 -5.328125 C 5.09375 -5.78125 4.65625 -6.1875 4.0625 -6.1875 C 3.03125 -6.1875 2.53125 -5.25 2.34375 -4.640625 L 2.34375 -6.1875 L 0.390625 -6.03125 L 0.390625 -5.59375 C 1.375 -5.59375 1.484375 -5.5 1.484375 -4.8125 L 1.484375 -1.0625 C 1.484375 -0.4375 1.328125 -0.4375 0.390625 -0.4375 L 0.390625 0 L 1.984375 -0.046875 C 2.546875 -0.046875 3.203125 -0.046875 3.765625 0 L 3.765625 -0.4375 L 3.46875 -0.4375 C 2.4375 -0.4375 2.40625 -0.59375 2.40625 -1.09375 L 2.40625 -3.25 C 2.40625 -4.640625 3 -5.875 4.0625 -5.875 C 4.15625 -5.875 4.1875 -5.875 4.21875 -5.859375 C 4.171875 -5.859375 3.890625 -5.6875 3.890625 -5.3125 C 3.890625 -4.921875 4.1875 -4.71875 4.5 -4.71875 C 4.75 -4.71875 5.09375 -4.890625 5.09375 -5.328125 Z M 5.09375 -5.328125 "/>
</g>
<g id="glyph-1-25-54225637">
<path d="M 3.453125 0 L 3.453125 -0.4375 C 2.53125 -0.4375 2.484375 -0.5 2.484375 -1.046875 L 2.484375 -6.1875 L 0.515625 -6.03125 L 0.515625 -5.59375 C 1.421875 -5.59375 1.546875 -5.515625 1.546875 -4.828125 L 1.546875 -1.0625 C 1.546875 -0.4375 1.40625 -0.4375 0.46875 -0.4375 L 0.46875 0 L 2 -0.046875 C 2.484375 -0.046875 2.984375 -0.015625 3.453125 0 Z M 2.6875 -8.453125 C 2.6875 -8.828125 2.359375 -9.203125 1.953125 -9.203125 C 1.46875 -9.203125 1.1875 -8.8125 1.1875 -8.453125 C 1.1875 -8.078125 1.515625 -7.71875 1.9375 -7.71875 C 2.40625 -7.71875 2.6875 -8.109375 2.6875 -8.453125 Z M 2.6875 -8.453125 "/>
</g>
<g id="glyph-1-26-54225637">
<path d="M 5.609375 -2.625 L 5.265625 -2.625 C 5.140625 -0.96875 4.84375 -0.34375 3.21875 -0.34375 L 1.5625 -0.34375 L 5.453125 -5.609375 C 5.59375 -5.765625 5.59375 -5.796875 5.59375 -5.859375 C 5.59375 -6.03125 5.46875 -6.03125 5.21875 -6.03125 L 0.734375 -6.03125 L 0.59375 -3.78125 L 0.9375 -3.78125 C 1.015625 -5.203125 1.28125 -5.71875 2.828125 -5.71875 L 4.421875 -5.71875 L 0.515625 -0.453125 C 0.390625 -0.296875 0.390625 -0.265625 0.390625 -0.203125 C 0.390625 0 0.484375 0 0.75 0 L 5.375 0 Z M 5.609375 -2.625 "/>
</g>
<g id="glyph-1-27-54225637">
<path d="M 4.640625 -1.734375 L 4.640625 -2.53125 L 4.296875 -2.53125 L 4.296875 -1.765625 C 4.296875 -0.734375 3.875 -0.203125 3.359375 -0.203125 C 2.421875 -0.203125 2.421875 -1.46875 2.421875 -1.703125 L 2.421875 -5.59375 L 4.421875 -5.59375 L 4.421875 -6.03125 L 2.421875 -6.03125 L 2.421875 -8.609375 L 2.078125 -8.609375 C 2.0625 -7.46875 1.640625 -5.96875 0.265625 -5.90625 L 0.265625 -5.59375 L 1.453125 -5.59375 L 1.453125 -1.734375 C 1.453125 -0.015625 2.765625 0.15625 3.265625 0.15625 C 4.25 0.15625 4.640625 -0.84375 4.640625 -1.734375 Z M 4.640625 -1.734375 "/>
</g>
<g id="glyph-2-0-54225637">
<path d="M 6.390625 -2.390625 C 6.390625 -3.546875 5.515625 -4.640625 4.0625 -4.921875 C 5.203125 -5.3125 6.015625 -6.28125 6.015625 -7.390625 C 6.015625 -8.546875 4.78125 -9.328125 3.4375 -9.328125 C 2.03125 -9.328125 0.96875 -8.484375 0.96875 -7.421875 C 0.96875 -6.953125 1.28125 -6.6875 1.6875 -6.6875 C 2.109375 -6.6875 2.390625 -7 2.390625 -7.40625 C 2.390625 -8.109375 1.734375 -8.109375 1.53125 -8.109375 C 1.953125 -8.796875 2.890625 -8.96875 3.390625 -8.96875 C 3.96875 -8.96875 4.734375 -8.671875 4.734375 -7.40625 C 4.734375 -7.234375 4.703125 -6.421875 4.34375 -5.8125 C 3.921875 -5.140625 3.4375 -5.09375 3.09375 -5.078125 C 2.984375 -5.0625 2.640625 -5.046875 2.546875 -5.046875 C 2.4375 -5.03125 2.34375 -5.015625 2.34375 -4.875 C 2.34375 -4.71875 2.4375 -4.71875 2.671875 -4.71875 L 3.296875 -4.71875 C 4.4375 -4.71875 4.953125 -3.765625 4.953125 -2.390625 C 4.953125 -0.484375 3.984375 -0.078125 3.375 -0.078125 C 2.765625 -0.078125 1.71875 -0.328125 1.234375 -1.140625 C 1.71875 -1.078125 2.15625 -1.390625 2.15625 -1.921875 C 2.15625 -2.421875 1.78125 -2.703125 1.375 -2.703125 C 1.03125 -2.703125 0.59375 -2.5 0.59375 -1.890625 C 0.59375 -0.609375 1.890625 0.3125 3.421875 0.3125 C 5.125 0.3125 6.390625 -0.96875 6.390625 -2.390625 Z M 6.390625 -2.390625 "/>
</g>
<g id="glyph-3-0-54225637">
<path d="M 2.6875 -0.734375 C 2.6875 -1.140625 2.359375 -1.484375 1.953125 -1.484375 C 1.546875 -1.484375 1.203125 -1.140625 1.203125 -0.734375 C 1.203125 -0.34375 1.546875 0 1.953125 0 C 2.359375 0 2.6875 -0.34375 2.6875 -0.734375 Z M 2.6875 -0.734375 "/>
</g>
<g id="glyph-4-0-54225637">
<path d="M 3.453125 0 L 3.453125 -0.4375 C 2.53125 -0.4375 2.484375 -0.5 2.484375 -1.046875 L 2.484375 -6.1875 L 0.515625 -6.03125 L 0.515625 -5.59375 C 1.421875 -5.59375 1.546875 -5.515625 1.546875 -4.828125 L 1.546875 -1.0625 C 1.546875 -0.4375 1.40625 -0.4375 0.46875 -0.4375 L 0.46875 0 L 2 -0.046875 C 2.484375 -0.046875 2.984375 -0.015625 3.453125 0 Z M 2.6875 -8.453125 C 2.6875 -8.828125 2.359375 -9.203125 1.953125 -9.203125 C 1.46875 -9.203125 1.1875 -8.8125 1.1875 -8.453125 C 1.1875 -8.078125 1.515625 -7.71875 1.9375 -7.71875 C 2.40625 -7.71875 2.6875 -8.109375 2.6875 -8.453125 Z M 2.6875 -8.453125 "/>
</g>
<g id="glyph-5-0-54225637">
<path d="M 4.640625 -1.734375 L 4.640625 -2.53125 L 4.296875 -2.53125 L 4.296875 -1.765625 C 4.296875 -0.734375 3.875 -0.203125 3.359375 -0.203125 C 2.421875 -0.203125 2.421875 -1.46875 2.421875 -1.703125 L 2.421875 -5.59375 L 4.421875 -5.59375 L 4.421875 -6.03125 L 2.421875 -6.03125 L 2.421875 -8.609375 L 2.078125 -8.609375 C 2.0625 -7.46875 1.640625 -5.96875 0.265625 -5.90625 L 0.265625 -5.59375 L 1.453125 -5.59375 L 1.453125 -1.734375 C 1.453125 -0.015625 2.765625 0.15625 3.265625 0.15625 C 4.25 0.15625 4.640625 -0.84375 4.640625 -1.734375 Z M 4.640625 -1.734375 "/>
</g>
</g>
<clipPath id="clip-0-54225637">
<path clip-rule="nonzero" d="M 54 16 L 524 16 L 524 363 L 54 363 Z M 54 16 "/>
</clipPath>
</defs>
<rect x="-60" y="-45" width="720" height="540" fill="rgb(100%, 100%, 100%)" fill-opacity="1"/>
<path fill-rule="nonzero" fill="rgb(100%, 100%, 100%)" fill-opacity="1" d="M 50 363 L 528 363 L 528 16 L 50 16 Z M 50 363 "/>
<path fill-rule="nonzero" fill="rgb(100%, 100%, 100%)" fill-opacity="1" d="M 50 363 L 528 363 L 528 16 L 50 16 Z M 50 363 "/>
<path fill="none" stroke-width="1" stroke-linecap="butt" stroke-linejoin="miter" stroke="rgb(0%, 0%, 0%)" stroke-opacity="0.12" stroke-miterlimit="1.154701" d="M 71.726562 363 L 71.726562 16 "/>
<path fill="none" stroke-width="1" stroke-linecap="butt" stroke-linejoin="miter" stroke="rgb(0%, 0%, 0%)" stroke-opacity="0.12" stroke-miterlimit="1.154701" d="M 144.152344 363 L 144.152344 16 "/>
<path fill="none" stroke-width="1" stroke-linecap="butt" stroke-linejoin="miter" stroke="rgb(0%, 0%, 0%)" stroke-opacity="0.12" stroke-miterlimit="1.154701" d="M 216.574219 363 L 216.574219 16 "/>
<path fill="none" stroke-width="1" stroke-linecap="butt" stroke-linejoin="miter" stroke="rgb(0%, 0%, 0%)" stroke-opacity="0.12" stroke-miterlimit="1.154701" d="M 289 363 L 289 16 "/>
<path fill="none" stroke-width="1" stroke-linecap="butt" stroke-linejoin="miter" stroke="rgb(0%, 0%, 0%)" stroke-opacity="0.12" stroke-miterlimit="1.154701" d="M 361.425781 363 L 361.425781 16 "/>
<path fill="none" stroke-width="1" stroke-linecap="butt" stroke-linejoin="miter" stroke="rgb(0%, 0%, 0%)" stroke-opacity="0.12" stroke-miterlimit="1.154701" d="M 433.847656 363 L 433.847656 16 "/>
<path fill="none" stroke-width="1" stroke-linecap="butt" stroke-linejoin="miter" stroke="rgb(0%, 0%, 0%)" stroke-opacity="0.12" stroke-miterlimit="1.154701" d="M 506.273438 363 L 506.273438 16 "/>
<path fill="none" stroke-width="1" stroke-linecap="butt" stroke-linejoin="miter" stroke="rgb(0%, 0%, 0%)" stroke-opacity="0.12" stroke-miterlimit="1.154701" d="M 50 347.226562 L 528 347.226562 "/>
<path fill="none" stroke-width="1" stroke-linecap="butt" stroke-linejoin="miter" stroke="rgb(0%, 0%, 0%)" stroke-opacity="0.12" stroke-miterlimit="1.154701" d="M 50 236.347656 L 528 236.347656 "/>
<path fill="none" stroke-width="1" stroke-linecap="butt" stroke-linejoin="miter" stroke="rgb(0%, 0%, 0%)" stroke-opacity="0.12" stroke-miterlimit="1.154701" d="M 50 125.46875 L 528 125.46875 "/>
<path fill="none" stroke-width="1" stroke-linecap="butt" stroke-linejoin="miter" stroke="rgb(0%, 0%, 0%)" stroke-opacity="0.12" stroke-miterlimit="1.154701" d="M 528 363 L 50 363 "/>
<path fill="none" stroke-width="1" stroke-linecap="butt" stroke-linejoin="miter" stroke="rgb(0%, 0%, 0%)" stroke-opacity="0.12" stroke-miterlimit="1.154701" d="M 528 189.5 L 50 189.5 "/>
<path fill="none" stroke-width="1" stroke-linecap="butt" stroke-linejoin="miter" stroke="rgb(0%, 0%, 0%)" stroke-opacity="0.12" stroke-miterlimit="1.154701" d="M 528 16 L 50 16 "/>
<g fill="rgb(0%, 0%, 0%)" fill-opacity="1">
<use xlink:href="#glyph-0-0-54225637" x="62.781273" y="382.283999"/>
</g>
<g fill="rgb(0%, 0%, 0%)" fill-opacity="1">
<use xlink:href="#glyph-1-0-54225637" x="73.673274" y="382.283999"/>
</g>
<g fill="rgb(0%, 0%, 0%)" fill-opacity="1">
<use xlink:href="#glyph-1-1-54225637" x="135.205523" y="382.283999"/>
</g>
<g fill="rgb(0%, 0%, 0%)" fill-opacity="1">
<use xlink:href="#glyph-1-2-54225637" x="146.097523" y="382.283999"/>
</g>
<g fill="rgb(0%, 0%, 0%)" fill-opacity="1">
<use xlink:href="#glyph-1-1-54225637" x="207.629765" y="382.283999"/>
</g>
<g fill="rgb(0%, 0%, 0%)" fill-opacity="1">
<use xlink:href="#glyph-1-3-54225637" x="218.521765" y="382.283999"/>
</g>
<g fill="rgb(0%, 0%, 0%)" fill-opacity="1">
<use xlink:href="#glyph-1-4-54225637" x="285.500007" y="382.283999"/>
</g>
<g fill="rgb(0%, 0%, 0%)" fill-opacity="1">
<use xlink:href="#glyph-1-3-54225637" x="357.924264" y="382.283999"/>
</g>
<g fill="rgb(0%, 0%, 0%)" fill-opacity="1">
<use xlink:href="#glyph-1-2-54225637" x="430.348491" y="382.283999"/>
</g>
<g fill="rgb(0%, 0%, 0%)" fill-opacity="1">
<use xlink:href="#glyph-2-0-54225637" x="502.772748" y="382.283999"/>
</g>
<g fill="rgb(0%, 0%, 0%)" fill-opacity="1">
<use xlink:href="#glyph-1-4-54225637" x="15.108" y="351.51127"/>
</g>
<g fill="rgb(0%, 0%, 0%)" fill-opacity="1">
<use xlink:href="#glyph-3-0-54225637" x="22.108" y="351.51127"/>
</g>
<g fill="rgb(0%, 0%, 0%)" fill-opacity="1">
<use xlink:href="#glyph-1-4-54225637" x="26.000001" y="351.51127"/>
</g>
<g fill="rgb(0%, 0%, 0%)" fill-opacity="1">
<use xlink:href="#glyph-1-4-54225637" x="33.000001" y="351.51127"/>
</g>
<g fill="rgb(0%, 0%, 0%)" fill-opacity="1">
<use xlink:href="#glyph-1-4-54225637" x="15.108" y="240.632308"/>
</g>
<g fill="rgb(0%, 0%, 0%)" fill-opacity="1">
<use xlink:href="#glyph-3-0-54225637" x="22.108" y="240.632308"/>
</g>
<g fill="rgb(0%, 0%, 0%)" fill-opacity="1">
<use xlink:href="#glyph-1-2-54225637" x="26.000001" y="240.632308"/>
</g>
<g fill="rgb(0%, 0%, 0%)" fill-opacity="1">
<use xlink:href="#glyph-1-5-54225637" x="33.000001" y="240.632308"/>
</g>
<g fill="rgb(0%, 0%, 0%)" fill-opacity="1">
<use xlink:href="#glyph-1-4-54225637" x="15.108" y="129.753353"/>
</g>
<g fill="rgb(0%, 0%, 0%)" fill-opacity="1">
<use xlink:href="#glyph-3-0-54225637" x="22.108" y="129.753353"/>
</g>
<g fill="rgb(0%, 0%, 0%)" fill-opacity="1">
<use xlink:href="#glyph-1-5-54225637" x="26.000001" y="129.753353"/>
</g>
<g fill="rgb(0%, 0%, 0%)" fill-opacity="1">
<use xlink:href="#glyph-1-4-54225637" x="33.000001" y="129.753353"/>
</g>
<path fill-rule="nonzero" fill="rgb(19.999999%, 55.764699%, 75.843138%)" fill-opacity="1" d="M 87.890625 347.226562 L 91.261719 347.226562 L 91.261719 346.273438 L 87.890625 346.273438 Z M 87.890625 347.226562 "/>
<path fill-rule="nonzero" fill="rgb(19.999999%, 55.764699%, 75.843138%)" fill-opacity="1" d="M 111.484375 347.226562 L 114.855469 347.226562 L 114.855469 346.273438 L 111.484375 346.273438 Z M 111.484375 347.226562 "/>
<path fill-rule="nonzero" fill="rgb(19.999999%, 55.764699%, 75.843138%)" fill-opacity="1" d="M 114.855469 347.226562 L 118.226562 347.226562 L 118.226562 346.273438 L 114.855469 346.273438 Z M 114.855469 347.226562 "/>
<path fill-rule="nonzero" fill="rgb(19.999999%, 55.764699%, 75.843138%)" fill-opacity="1" d="M 118.226562 347.226562 L 121.597656 347.226562 L 121.597656 345.320312 L 118.226562 345.320312 Z M 118.226562 347.226562 "/>
<path fill-rule="nonzero" fill="rgb(19.999999%, 55.764699%, 75.843138%)" fill-opacity="1" d="M 121.59375 347.226562 L 124.964844 347.226562 L 124.964844 345.320312 L 121.59375 345.320312 Z M 121.59375 347.226562 "/>
<path fill-rule="nonzero" fill="rgb(19.999999%, 55.764699%, 75.843138%)" fill-opacity="1" d="M 128.335938 347.226562 L 131.707031 347.226562 L 131.707031 346.273438 L 128.335938 346.273438 Z M 128.335938 347.226562 "/>
<path fill-rule="nonzero" fill="rgb(19.999999%, 55.764699%, 75.843138%)" fill-opacity="1" d="M 131.707031 347.226562 L 135.078125 347.226562 L 135.078125 341.507812 L 131.707031 341.507812 Z M 131.707031 347.226562 "/>
<path fill-rule="nonzero" fill="rgb(19.999999%, 55.764699%, 75.843138%)" fill-opacity="1" d="M 135.078125 347.226562 L 138.449219 347.226562 L 138.449219 344.367188 L 135.078125 344.367188 Z M 135.078125 347.226562 "/>
<path fill-rule="nonzero" fill="rgb(19.999999%, 55.764699%, 75.843138%)" fill-opacity="1" d="M 138.449219 347.226562 L 141.820312 347.226562 L 141.820312 339.601562 L 138.449219 339.601562 Z M 138.449219 347.226562 "/>
<path fill-rule="nonzero" fill="rgb(19.999999%, 55.764699%, 75.843138%)" fill-opacity="1" d="M 141.816406 347.226562 L 145.1875 347.226562 L 145.1875 341.507812 L 141.816406 341.507812 Z M 141.816406 347.226562 "/>
<path fill-rule="nonzero" fill="rgb(19.999999%, 55.764699%, 75.843138%)" fill-opacity="1" d="M 145.1875 347.226562 L 148.558594 347.226562 L 148.558594 338.648438 L 145.1875 338.648438 Z M 145.1875 347.226562 "/>
<path fill-rule="nonzero" fill="rgb(19.999999%, 55.764699%, 75.843138%)" fill-opacity="1" d="M 148.558594 347.226562 L 151.929688 347.226562 L 151.929688 331.023438 L 148.558594 331.023438 Z M 148.558594 347.226562 "/>
<path fill-rule="nonzero" fill="rgb(19.999999%, 55.764699%, 75.843138%)" fill-opacity="1" d="M 151.929688 347.226562 L 155.300781 347.226562 L 155.300781 333.882812 L 151.929688 333.882812 Z M 151.929688 347.226562 "/>
<path fill-rule="nonzero" fill="rgb(19.999999%, 55.764699%, 75.843138%)" fill-opacity="1" d="M 155.300781 347.226562 L 158.671875 347.226562 L 158.671875 324.355469 L 155.300781 324.355469 Z M 155.300781 347.226562 "/>
<path fill-rule="nonzero" fill="rgb(19.999999%, 55.764699%, 75.843138%)" fill-opacity="1" d="M 158.667969 347.226562 L 162.039062 347.226562 L 162.039062 323.402344 L 158.667969 323.402344 Z M 158.667969 347.226562 "/>
<path fill-rule="nonzero" fill="rgb(19.999999%, 55.764699%, 75.843138%)" fill-opacity="1" d="M 162.039062 347.226562 L 165.410156 347.226562 L 165.410156 324.355469 L 162.039062 324.355469 Z M 162.039062 347.226562 "/>
<path fill-rule="nonzero" fill="rgb(19.999999%, 55.764699%, 75.843138%)" fill-opacity="1" d="M 165.410156 347.226562 L 168.78125 347.226562 L 168.78125 318.636719 L 165.410156 318.636719 Z M 165.410156 347.226562 "/>
<path fill-rule="nonzero" fill="rgb(19.999999%, 55.764699%, 75.843138%)" fill-opacity="1" d="M 168.78125 347.226562 L 172.152344 347.226562 L 172.152344 312.917969 L 168.78125 312.917969 Z M 168.78125 347.226562 "/>
<path fill-rule="nonzero" fill="rgb(19.999999%, 55.764699%, 75.843138%)" fill-opacity="1" d="M 172.152344 347.226562 L 175.523438 347.226562 L 175.523438 307.199219 L 172.152344 307.199219 Z M 172.152344 347.226562 "/>
<path fill-rule="nonzero" fill="rgb(19.999999%, 55.764699%, 75.843138%)" fill-opacity="1" d="M 175.523438 347.226562 L 178.894531 347.226562 L 178.894531 295.761719 L 175.523438 295.761719 Z M 175.523438 347.226562 "/>
<path fill-rule="nonzero" fill="rgb(19.999999%, 55.764699%, 75.843138%)" fill-opacity="1" d="M 178.890625 347.226562 L 182.261719 347.226562 L 182.261719 295.761719 L 178.890625 295.761719 Z M 178.890625 347.226562 "/>
<path fill-rule="nonzero" fill="rgb(19.999999%, 55.764699%, 75.843138%)" fill-opacity="1" d="M 182.261719 347.226562 L 185.632812 347.226562 L 185.632812 294.808594 L 182.261719 294.808594 Z M 182.261719 347.226562 "/>
<path fill-rule="nonzero" fill="rgb(19.999999%, 55.764699%, 75.843138%)" fill-opacity="1" d="M 185.632812 347.226562 L 189.003906 347.226562 L 189.003906 275.75 L 185.632812 275.75 Z M 185.632812 347.226562 "/>
<path fill-rule="nonzero" fill="rgb(19.999999%, 55.764699%, 75.843138%)" fill-opacity="1" d="M 189.003906 347.226562 L 192.375 347.226562 L 192.375 254.78125 L 189.003906 254.78125 Z M 189.003906 347.226562 "/>
<path fill-rule="nonzero" fill="rgb(19.999999%, 55.764699%, 75.843138%)" fill-opacity="1" d="M 192.375 347.226562 L 195.746094 347.226562 L 195.746094 276.703125 L 192.375 276.703125 Z M 192.375 347.226562 "/>
<path fill-rule="nonzero" fill="rgb(19.999999%, 55.764699%, 75.843138%)" fill-opacity="1" d="M 195.746094 347.226562 L 199.117188 347.226562 L 199.117188 252.875 L 195.746094 252.875 Z M 195.746094 347.226562 "/>
<path fill-rule="nonzero" fill="rgb(19.999999%, 55.764699%, 75.843138%)" fill-opacity="1" d="M 199.113281 347.226562 L 202.484375 347.226562 L 202.484375 260.5 L 199.113281 260.5 Z M 199.113281 347.226562 "/>
<path fill-rule="nonzero" fill="rgb(19.999999%, 55.764699%, 75.843138%)" fill-opacity="1" d="M 202.484375 347.226562 L 205.855469 347.226562 L 205.855469 212.847656 L 202.484375 212.847656 Z M 202.484375 347.226562 "/>
<path fill-rule="nonzero" fill="rgb(19.999999%, 55.764699%, 75.843138%)" fill-opacity="1" d="M 205.855469 347.226562 L 209.226562 347.226562 L 209.226562 252.875 L 205.855469 252.875 Z M 205.855469 347.226562 "/>
<path fill-rule="nonzero" fill="rgb(19.999999%, 55.764699%, 75.843138%)" fill-opacity="1" d="M 209.226562 347.226562 L 212.597656 347.226562 L 212.597656 201.414062 L 209.226562 201.414062 Z M 209.226562 347.226562 "/>
<path fill-rule="nonzero" fill="rgb(19.999999%, 55.764699%, 75.843138%)" fill-opacity="1" d="M 212.597656 347.226562 L 215.96875 347.226562 L 215.96875 209.035156 L 212.597656 209.035156 Z M 212.597656 347.226562 "/>
<path fill-rule="nonzero" fill="rgb(19.999999%, 55.764699%, 75.843138%)" fill-opacity="1" d="M 215.96875 347.226562 L 219.339844 347.226562 L 219.339844 189.023438 L 215.96875 189.023438 Z M 215.96875 347.226562 "/>
<path fill-rule="nonzero" fill="rgb(19.999999%, 55.764699%, 75.843138%)" fill-opacity="1" d="M 219.335938 347.226562 L 222.707031 347.226562 L 222.707031 161.382812 L 219.335938 161.382812 Z M 219.335938 347.226562 "/>
<path fill-rule="nonzero" fill="rgb(19.999999%, 55.764699%, 75.843138%)" fill-opacity="1" d="M 222.707031 347.226562 L 226.078125 347.226562 L 226.078125 148.996094 L 222.707031 148.996094 Z M 222.707031 347.226562 "/>
<path fill-rule="nonzero" fill="rgb(19.999999%, 55.764699%, 75.843138%)" fill-opacity="1" d="M 226.078125 347.226562 L 229.449219 347.226562 L 229.449219 169.007812 L 226.078125 169.007812 Z M 226.078125 347.226562 "/>
<path fill-rule="nonzero" fill="rgb(19.999999%, 55.764699%, 75.843138%)" fill-opacity="1" d="M 229.449219 347.226562 L 232.820312 347.226562 L 232.820312 138.511719 L 229.449219 138.511719 Z M 229.449219 347.226562 "/>
<path fill-rule="nonzero" fill="rgb(19.999999%, 55.764699%, 75.843138%)" fill-opacity="1" d="M 232.820312 347.226562 L 236.191406 347.226562 L 236.191406 114.6875 L 232.820312 114.6875 Z M 232.820312 347.226562 "/>
<path fill-rule="nonzero" fill="rgb(19.999999%, 55.764699%, 75.843138%)" fill-opacity="1" d="M 236.191406 347.226562 L 239.5625 347.226562 L 239.5625 124.214844 L 236.191406 124.214844 Z M 236.191406 347.226562 "/>
<path fill-rule="nonzero" fill="rgb(19.999999%, 55.764699%, 75.843138%)" fill-opacity="1" d="M 239.558594 347.226562 L 242.929688 347.226562 L 242.929688 79.421875 L 239.558594 79.421875 Z M 239.558594 347.226562 "/>
<path fill-rule="nonzero" fill="rgb(19.999999%, 55.764699%, 75.843138%)" fill-opacity="1" d="M 242.929688 347.226562 L 246.300781 347.226562 L 246.300781 135.652344 L 242.929688 135.652344 Z M 242.929688 347.226562 "/>
<path fill-rule="nonzero" fill="rgb(19.999999%, 55.764699%, 75.843138%)" fill-opacity="1" d="M 246.300781 347.226562 L 249.671875 347.226562 L 249.671875 85.140625 L 246.300781 85.140625 Z M 246.300781 347.226562 "/>
<path fill-rule="nonzero" fill="rgb(19.999999%, 55.764699%, 75.843138%)" fill-opacity="1" d="M 249.671875 347.226562 L 253.042969 347.226562 L 253.042969 76.566406 L 249.671875 76.566406 Z M 249.671875 347.226562 "/>
<path fill-rule="nonzero" fill="rgb(19.999999%, 55.764699%, 75.843138%)" fill-opacity="1" d="M 253.042969 347.226562 L 256.414062 347.226562 L 256.414062 43.207031 L 253.042969 43.207031 Z M 253.042969 347.226562 "/>
<path fill-rule="nonzero" fill="rgb(19.999999%, 55.764699%, 75.843138%)" fill-opacity="1" d="M 256.414062 347.226562 L 259.785156 347.226562 L 259.785156 69.894531 L 256.414062 69.894531 Z M 256.414062 347.226562 "/>
<path fill-rule="nonzero" fill="rgb(19.999999%, 55.764699%, 75.843138%)" fill-opacity="1" d="M 259.78125 347.226562 L 263.152344 347.226562 L 263.152344 60.363281 L 259.78125 60.363281 Z M 259.78125 347.226562 "/>
<path fill-rule="nonzero" fill="rgb(19.999999%, 55.764699%, 75.843138%)" fill-opacity="1" d="M 263.152344 347.226562 L 266.523438 347.226562 L 266.523438 59.410156 L 263.152344 59.410156 Z M 263.152344 347.226562 "/>
<path fill-rule="nonzero" fill="rgb(19.999999%, 55.764699%, 75.843138%)" fill-opacity="1" d="M 266.523438 347.226562 L 269.894531 347.226562 L 269.894531 31.773438 L 266.523438 31.773438 Z M 266.523438 347.226562 "/>
<path fill-rule="nonzero" fill="rgb(19.999999%, 55.764699%, 75.843138%)" fill-opacity="1" d="M 269.894531 347.226562 L 273.265625 347.226562 L 273.265625 47.972656 L 269.894531 47.972656 Z M 269.894531 347.226562 "/>
<path fill-rule="nonzero" fill="rgb(19.999999%, 55.764699%, 75.843138%)" fill-opacity="1" d="M 273.265625 347.226562 L 276.636719 347.226562 L 276.636719 69.894531 L 273.265625 69.894531 Z M 273.265625 347.226562 "/>
<path fill-rule="nonzero" fill="rgb(19.999999%, 55.764699%, 75.843138%)" fill-opacity="1" d="M 276.632812 347.226562 L 280.003906 347.226562 L 280.003906 58.457031 L 276.632812 58.457031 Z M 276.632812 347.226562 "/>
<path fill-rule="nonzero" fill="rgb(19.999999%, 55.764699%, 75.843138%)" fill-opacity="1" d="M 280.003906 347.226562 L 283.375 347.226562 L 283.375 79.421875 L 280.003906 79.421875 Z M 280.003906 347.226562 "/>
<path fill-rule="nonzero" fill="rgb(19.999999%, 55.764699%, 75.843138%)" fill-opacity="1" d="M 283.375 347.226562 L 286.746094 347.226562 L 286.746094 88 L 283.375 88 Z M 283.375 347.226562 "/>
<path fill-rule="nonzero" fill="rgb(19.999999%, 55.764699%, 75.843138%)" fill-opacity="1" d="M 286.746094 347.226562 L 290.117188 347.226562 L 290.117188 94.671875 L 286.746094 94.671875 Z M 286.746094 347.226562 "/>
<path fill-rule="nonzero" fill="rgb(19.999999%, 55.764699%, 75.843138%)" fill-opacity="1" d="M 290.117188 347.226562 L 293.488281 347.226562 L 293.488281 83.234375 L 290.117188 83.234375 Z M 290.117188 347.226562 "/>
<path fill-rule="nonzero" fill="rgb(19.999999%, 55.764699%, 75.843138%)" fill-opacity="1" d="M 293.488281 347.226562 L 296.859375 347.226562 L 296.859375 128.980469 L 293.488281 128.980469 Z M 293.488281 347.226562 "/>
<path fill-rule="nonzero" fill="rgb(19.999999%, 55.764699%, 75.843138%)" fill-opacity="1" d="M 296.855469 347.226562 L 300.226562 347.226562 L 300.226562 123.261719 L 296.855469 123.261719 Z M 296.855469 347.226562 "/>
<path fill-rule="nonzero" fill="rgb(19.999999%, 55.764699%, 75.843138%)" fill-opacity="1" d="M 300.226562 347.226562 L 303.597656 347.226562 L 303.597656 153.761719 L 300.226562 153.761719 Z M 300.226562 347.226562 "/>
<path fill-rule="nonzero" fill="rgb(19.999999%, 55.764699%, 75.843138%)" fill-opacity="1" d="M 303.597656 347.226562 L 306.96875 347.226562 L 306.96875 140.417969 L 303.597656 140.417969 Z M 303.597656 347.226562 "/>
<path fill-rule="nonzero" fill="rgb(19.999999%, 55.764699%, 75.843138%)" fill-opacity="1" d="M 306.96875 347.226562 L 310.339844 347.226562 L 310.339844 158.527344 L 306.96875 158.527344 Z M 306.96875 347.226562 "/>
<path fill-rule="nonzero" fill="rgb(19.999999%, 55.764699%, 75.843138%)" fill-opacity="1" d="M 310.339844 347.226562 L 313.710938 347.226562 L 313.710938 193.789062 L 310.339844 193.789062 Z M 310.339844 347.226562 "/>
<path fill-rule="nonzero" fill="rgb(19.999999%, 55.764699%, 75.843138%)" fill-opacity="1" d="M 313.710938 347.226562 L 317.082031 347.226562 L 317.082031 189.976562 L 313.710938 189.976562 Z M 313.710938 347.226562 "/>
<path fill-rule="nonzero" fill="rgb(19.999999%, 55.764699%, 75.843138%)" fill-opacity="1" d="M 317.078125 347.226562 L 320.449219 347.226562 L 320.449219 214.753906 L 317.078125 214.753906 Z M 317.078125 347.226562 "/>
<path fill-rule="nonzero" fill="rgb(19.999999%, 55.764699%, 75.843138%)" fill-opacity="1" d="M 320.449219 347.226562 L 323.820312 347.226562 L 323.820312 197.601562 L 320.449219 197.601562 Z M 320.449219 347.226562 "/>
<path fill-rule="nonzero" fill="rgb(19.999999%, 55.764699%, 75.843138%)" fill-opacity="1" d="M 323.820312 347.226562 L 327.191406 347.226562 L 327.191406 242.394531 L 323.820312 242.394531 Z M 323.820312 347.226562 "/>
<path fill-rule="nonzero" fill="rgb(19.999999%, 55.764699%, 75.843138%)" fill-opacity="1" d="M 327.191406 347.226562 L 330.5625 347.226562 L 330.5625 253.828125 L 327.191406 253.828125 Z M 327.191406 347.226562 "/>
<path fill-rule="nonzero" fill="rgb(19.999999%, 55.764699%, 75.843138%)" fill-opacity="1" d="M 330.5625 347.226562 L 333.933594 347.226562 L 333.933594 263.359375 L 330.5625 263.359375 Z M 330.5625 347.226562 "/>
<path fill-rule="nonzero" fill="rgb(19.999999%, 55.764699%, 75.843138%)" fill-opacity="1" d="M 333.933594 347.226562 L 337.304688 347.226562 L 337.304688 268.125 L 333.933594 268.125 Z M 333.933594 347.226562 "/>
<path fill-rule="nonzero" fill="rgb(19.999999%, 55.764699%, 75.843138%)" fill-opacity="1" d="M 337.300781 347.226562 L 340.671875 347.226562 L 340.671875 277.65625 L 337.300781 277.65625 Z M 337.300781 347.226562 "/>
<path fill-rule="nonzero" fill="rgb(19.999999%, 55.764699%, 75.843138%)" fill-opacity="1" d="M 340.671875 347.226562 L 344.042969 347.226562 L 344.042969 287.183594 L 340.671875 287.183594 Z M 340.671875 347.226562 "/>
<path fill-rule="nonzero" fill="rgb(19.999999%, 55.764699%, 75.843138%)" fill-opacity="1" d="M 344.042969 347.226562 L 347.414062 347.226562 L 347.414062 299.574219 L 344.042969 299.574219 Z M 344.042969 347.226562 "/>
<path fill-rule="nonzero" fill="rgb(19.999999%, 55.764699%, 75.843138%)" fill-opacity="1" d="M 347.414062 347.226562 L 350.785156 347.226562 L 350.785156 289.089844 L 347.414062 289.089844 Z M 347.414062 347.226562 "/>
<path fill-rule="nonzero" fill="rgb(19.999999%, 55.764699%, 75.843138%)" fill-opacity="1" d="M 350.785156 347.226562 L 354.15625 347.226562 L 354.15625 301.480469 L 350.785156 301.480469 Z M 350.785156 347.226562 "/>
<path fill-rule="nonzero" fill="rgb(19.999999%, 55.764699%, 75.843138%)" fill-opacity="1" d="M 354.15625 347.226562 L 357.527344 347.226562 L 357.527344 313.871094 L 354.15625 313.871094 Z M 354.15625 347.226562 "/>
<path fill-rule="nonzero" fill="rgb(19.999999%, 55.764699%, 75.843138%)" fill-opacity="1" d="M 357.523438 347.226562 L 360.894531 347.226562 L 360.894531 316.730469 L 357.523438 316.730469 Z M 357.523438 347.226562 "/>
<path fill-rule="nonzero" fill="rgb(19.999999%, 55.764699%, 75.843138%)" fill-opacity="1" d="M 360.894531 347.226562 L 364.265625 347.226562 L 364.265625 330.070312 L 360.894531 330.070312 Z M 360.894531 347.226562 "/>
<path fill-rule="nonzero" fill="rgb(19.999999%, 55.764699%, 75.843138%)" fill-opacity="1" d="M 364.265625 347.226562 L 367.636719 347.226562 L 367.636719 328.164062 L 364.265625 328.164062 Z M 364.265625 347.226562 "/>
<path fill-rule="nonzero" fill="rgb(19.999999%, 55.764699%, 75.843138%)" fill-opacity="1" d="M 367.636719 347.226562 L 371.007812 347.226562 L 371.007812 334.835938 L 367.636719 334.835938 Z M 367.636719 347.226562 "/>
<path fill-rule="nonzero" fill="rgb(19.999999%, 55.764699%, 75.843138%)" fill-opacity="1" d="M 371.007812 347.226562 L 374.378906 347.226562 L 374.378906 343.414062 L 371.007812 343.414062 Z M 371.007812 347.226562 "/>
<path fill-rule="nonzero" fill="rgb(19.999999%, 55.764699%, 75.843138%)" fill-opacity="1" d="M 374.375 347.226562 L 377.746094 347.226562 L 377.746094 338.648438 L 374.375 338.648438 Z M 374.375 347.226562 "/>
<path fill-rule="nonzero" fill="rgb(19.999999%, 55.764699%, 75.843138%)" fill-opacity="1" d="M 377.746094 347.226562 L 381.117188 347.226562 L 381.117188 341.507812 L 377.746094 341.507812 Z M 377.746094 347.226562 "/>
<path fill-rule="nonzero" fill="rgb(19.999999%, 55.764699%, 75.843138%)" fill-opacity="1" d="M 381.117188 347.226562 L 384.488281 347.226562 L 384.488281 339.601562 L 381.117188 339.601562 Z M 381.117188 347.226562 "/>
<path fill-rule="nonzero" fill="rgb(19.999999%, 55.764699%, 75.843138%)" fill-opacity="1" d="M 384.488281 347.226562 L 387.859375 347.226562 L 387.859375 344.367188 L 384.488281 344.367188 Z M 384.488281 347.226562 "/>
<path fill-rule="nonzero" fill="rgb(19.999999%, 55.764699%, 75.843138%)" fill-opacity="1" d="M 387.859375 347.226562 L 391.230469 347.226562 L 391.230469 340.554688 L 387.859375 340.554688 Z M 387.859375 347.226562 "/>
<path fill-rule="nonzero" fill="rgb(19.999999%, 55.764699%, 75.843138%)" fill-opacity="1" d="M 391.230469 347.226562 L 394.601562 347.226562 L 394.601562 342.460938 L 391.230469 342.460938 Z M 391.230469 347.226562 "/>
<path fill-rule="nonzero" fill="rgb(19.999999%, 55.764699%, 75.843138%)" fill-opacity="1" d="M 394.597656 347.226562 L 397.96875 347.226562 L 397.96875 344.367188 L 394.597656 344.367188 Z M 394.597656 347.226562 "/>
<path fill-rule="nonzero" fill="rgb(19.999999%, 55.764699%, 75.843138%)" fill-opacity="1" d="M 397.96875 347.226562 L 401.339844 347.226562 L 401.339844 346.273438 L 397.96875 346.273438 Z M 397.96875 347.226562 "/>
<path fill-rule="nonzero" fill="rgb(19.999999%, 55.764699%, 75.843138%)" fill-opacity="1" d="M 401.339844 347.226562 L 404.710938 347.226562 L 404.710938 344.367188 L 401.339844 344.367188 Z M 401.339844 347.226562 "/>
<path fill-rule="nonzero" fill="rgb(19.999999%, 55.764699%, 75.843138%)" fill-opacity="1" d="M 404.710938 347.226562 L 408.082031 347.226562 L 408.082031 346.273438 L 404.710938 346.273438 Z M 404.710938 347.226562 "/>
<path fill-rule="nonzero" fill="rgb(19.999999%, 55.764699%, 75.843138%)" fill-opacity="1" d="M 411.453125 347.226562 L 414.824219 347.226562 L 414.824219 346.273438 L 411.453125 346.273438 Z M 411.453125 347.226562 "/>
<path fill-rule="nonzero" fill="rgb(19.999999%, 55.764699%, 75.843138%)" fill-opacity="1" d="M 418.191406 347.226562 L 421.5625 347.226562 L 421.5625 346.273438 L 418.191406 346.273438 Z M 418.191406 347.226562 "/>
<path fill-rule="nonzero" fill="rgb(19.999999%, 55.764699%, 75.843138%)" fill-opacity="1" d="M 421.5625 347.226562 L 424.933594 347.226562 L 424.933594 346.273438 L 421.5625 346.273438 Z M 421.5625 347.226562 "/>
<g fill="rgb(0%, 0%, 0%)" fill-opacity="1">
<use xlink:href="#glyph-1-6-54225637" x="538.000013" y="367.283998"/>
</g>
<g fill="rgb(0%, 0%, 0%)" fill-opacity="1">
<use xlink:href="#glyph-1-2-54225637" x="542.662013" y="367.283998"/>
</g>
<g fill="rgb(0%, 0%, 0%)" fill-opacity="1">
<use xlink:href="#glyph-1-7-54225637" x="549.662014" y="367.283998"/>
</g>
<g fill="rgb(0%, 0%, 0%)" fill-opacity="1">
<use xlink:href="#glyph-1-2-54225637" x="553.554014" y="367.283998"/>
</g>
<g fill="rgb(0%, 0%, 0%)" fill-opacity="1">
<use xlink:href="#glyph-1-8-54225637" x="560.554014" y="367.283998"/>
</g>
<g fill="rgb(0%, 0%, 0%)" fill-opacity="1">
<use xlink:href="#glyph-1-6-54225637" x="566.770014" y="367.283998"/>
</g>
<g fill="rgb(0%, 0%, 0%)" fill-opacity="1">
<use xlink:href="#glyph-1-2-54225637" x="571.432013" y="367.283998"/>
</g>
<g fill="rgb(0%, 0%, 0%)" fill-opacity="1">
<use xlink:href="#glyph-1-9-54225637" x="578.432013" y="367.283998"/>
</g>
<g fill="rgb(0%, 0%, 0%)" fill-opacity="1">
<use xlink:href="#glyph-1-2-54225637" x="538.000013" y="193.783994"/>
</g>
<g fill="rgb(0%, 0%, 0%)" fill-opacity="1">
<use xlink:href="#glyph-1-7-54225637" x="545.000013" y="193.783994"/>
</g>
<g fill="rgb(0%, 0%, 0%)" fill-opacity="1">
<use xlink:href="#glyph-1-2-54225637" x="548.892013" y="193.783994"/>
</g>
<g fill="rgb(0%, 0%, 0%)" fill-opacity="1">
<use xlink:href="#glyph-1-8-54225637" x="555.892014" y="193.783994"/>
</g>
<g fill="rgb(0%, 0%, 0%)" fill-opacity="1">
<use xlink:href="#glyph-1-6-54225637" x="562.108013" y="193.783994"/>
</g>
<g fill="rgb(0%, 0%, 0%)" fill-opacity="1">
<use xlink:href="#glyph-1-2-54225637" x="566.770014" y="193.783994"/>
</g>
<g fill="rgb(0%, 0%, 0%)" fill-opacity="1">
<use xlink:href="#glyph-1-10-54225637" x="573.770014" y="193.783994"/>
</g>
<g fill="rgb(0%, 0%, 0%)" fill-opacity="1">
<use xlink:href="#glyph-1-11-54225637" x="538.000013" y="20.28399"/>
</g>
<g fill="rgb(0%, 0%, 0%)" fill-opacity="1">
<use xlink:href="#glyph-1-7-54225637" x="545.000013" y="20.28399"/>
</g>
<g fill="rgb(0%, 0%, 0%)" fill-opacity="1">
<use xlink:href="#glyph-1-9-54225637" x="548.892013" y="20.28399"/>
</g>
<g fill="rgb(0%, 0%, 0%)" fill-opacity="1">
<use xlink:href="#glyph-1-8-54225637" x="555.892014" y="20.28399"/>
</g>
<g fill="rgb(0%, 0%, 0%)" fill-opacity="1">
<use xlink:href="#glyph-1-6-54225637" x="562.108013" y="20.28399"/>
</g>
<g fill="rgb(0%, 0%, 0%)" fill-opacity="1">
<use xlink:href="#glyph-1-2-54225637" x="566.770014" y="20.28399"/>
</g>
<g fill="rgb(0%, 0%, 0%)" fill-opacity="1">
<use xlink:href="#glyph-1-10-54225637" x="573.770014" y="20.28399"/>
</g>
<g clip-path="url(#clip-0-54225637)">
<path fill="none" stroke-width="6" stroke-linecap="butt" stroke-linejoin="miter" stroke="rgb(100%, 64.705884%, 0%)" stroke-opacity="0.8" stroke-miterlimit="2" d="M 71.726562 347.222656 L 73.96875 347.222656 L 76.214844 347.21875 L 89.351562 347.171875 L 102.488281 346.972656 L 108.601562 346.746094 L 114.710938 346.363281 L 122.902344 345.445312 L 131.09375 343.792969 L 134.480469 342.804688 L 137.863281 341.589844 L 141.246094 340.113281 L 144.632812 338.332031 L 147.78125 336.367188 L 150.925781 334.066406 L 154.074219 331.394531 L 157.222656 328.316406 L 161.171875 323.816406 L 165.121094 318.546875 L 167.097656 315.601562 L 169.074219 312.441406 L 171.050781 309.054688 L 173.023438 305.441406 L 174.796875 301.996094 L 176.566406 298.359375 L 178.339844 294.523438 L 180.113281 290.492188 L 183.65625 281.824219 L 187.199219 272.347656 L 189.226562 266.566406 L 191.257812 260.527344 L 193.285156 254.238281 L 195.3125 247.703125 L 197.339844 240.929688 L 199.371094 233.929688 L 201.398438 226.71875 L 203.425781 219.308594 L 206.457031 207.894531 L 209.492188 196.132812 L 212.523438 184.09375 L 215.554688 171.855469 L 219.433594 156.050781 L 223.3125 140.265625 L 227.1875 124.714844 L 231.066406 109.625 L 232.835938 102.953125 L 234.605469 96.453125 L 236.378906 90.144531 L 238.148438 84.046875 L 239.917969 78.1875 L 241.6875 72.585938 L 243.457031 67.265625 L 245.226562 62.242188 L 247.242188 56.921875 L 249.253906 52.042969 L 251.269531 47.636719 L 253.285156 43.726562 L 255.296875 40.335938 L 257.3125 37.488281 L 259.328125 35.195312 L 261.339844 33.480469 L 262.9375 32.535156 L 264.535156 31.964844 L 266.132812 31.773438 L 267.726562 31.960938 L 269.324219 32.527344 L 270.921875 33.476562 L 272.519531 34.808594 L 274.117188 36.515625 L 276.097656 39.152344 L 278.082031 42.359375 L 280.066406 46.113281 L 282.050781 50.40625 L 284.035156 55.210938 L 286.019531 60.511719 L 288 66.277344 L 289.984375 72.488281 L 293.023438 82.78125 L 296.0625 93.925781 L 297.582031 99.777344 L 299.101562 105.792969 L 300.621094 111.960938 L 302.140625 118.253906 L 306.421875 136.570312 L 310.707031 155.417969 L 314.992188 174.410156 L 319.277344 193.203125 L 322.476562 206.910156 L 325.679688 220.203125 L 328.878906 232.972656 L 332.082031 245.121094 L 333.902344 251.730469 L 335.722656 258.101562 L 337.542969 264.230469 L 339.363281 270.105469 L 341.183594 275.730469 L 343.003906 281.089844 L 344.824219 286.1875 L 346.644531 291.023438 L 348.445312 295.550781 L 350.25 299.824219 L 352.050781 303.84375 L 353.855469 307.617188 L 355.65625 311.144531 L 357.460938 314.441406 L 359.261719 317.503906 L 361.066406 320.347656 L 363.046875 323.230469 L 365.03125 325.871094 L 367.015625 328.277344 L 368.996094 330.460938 L 372.964844 334.226562 L 376.929688 337.273438 L 379.960938 339.179688 L 382.992188 340.773438 L 386.019531 342.085938 L 389.050781 343.167969 L 396.695312 345.066406 L 404.34375 346.132812 L 411.417969 346.671875 L 418.488281 346.957031 L 433.078125 347.175781 L 447.863281 347.21875 L 463.304688 347.226562 L 506.273438 347.226562 "/>
</g>
<path fill="none" stroke-width="1" stroke-linecap="butt" stroke-linejoin="miter" stroke="rgb(0%, 0%, 0%)" stroke-opacity="1" stroke-miterlimit="1.154701" d="M 71.726562 363.5 L 71.726562 368.5 "/>
<path fill="none" stroke-width="1" stroke-linecap="butt" stroke-linejoin="miter" stroke="rgb(0%, 0%, 0%)" stroke-opacity="1" stroke-miterlimit="1.154701" d="M 144.152344 363.5 L 144.152344 368.5 "/>
<path fill="none" stroke-width="1" stroke-linecap="butt" stroke-linejoin="miter" stroke="rgb(0%, 0%, 0%)" stroke-opacity="1" stroke-miterlimit="1.154701" d="M 216.574219 363.5 L 216.574219 368.5 "/>
<path fill="none" stroke-width="1" stroke-linecap="butt" stroke-linejoin="miter" stroke="rgb(0%, 0%, 0%)" stroke-opacity="1" stroke-miterlimit="1.154701" d="M 289 363.5 L 289 368.5 "/>
<path fill="none" stroke-width="1" stroke-linecap="butt" stroke-linejoin="miter" stroke="rgb(0%, 0%, 0%)" stroke-opacity="1" stroke-miterlimit="1.154701" d="M 361.425781 363.5 L 361.425781 368.5 "/>
<path fill="none" stroke-width="1" stroke-linecap="butt" stroke-linejoin="miter" stroke="rgb(0%, 0%, 0%)" stroke-opacity="1" stroke-miterlimit="1.154701" d="M 433.847656 363.5 L 433.847656 368.5 "/>
<path fill="none" stroke-width="1" stroke-linecap="butt" stroke-linejoin="miter" stroke="rgb(0%, 0%, 0%)" stroke-opacity="1" stroke-miterlimit="1.154701" d="M 506.273438 363.5 L 506.273438 368.5 "/>
<path fill="none" stroke-width="1" stroke-linecap="butt" stroke-linejoin="miter" stroke="rgb(0%, 0%, 0%)" stroke-opacity="1" stroke-miterlimit="1.154701" d="M 49.5 347.226562 L 44.5 347.226562 "/>
<path fill="none" stroke-width="1" stroke-linecap="butt" stroke-linejoin="miter" stroke="rgb(0%, 0%, 0%)" stroke-opacity="1" stroke-miterlimit="1.154701" d="M 49.5 236.347656 L 44.5 236.347656 "/>
<path fill="none" stroke-width="1" stroke-linecap="butt" stroke-linejoin="miter" stroke="rgb(0%, 0%, 0%)" stroke-opacity="1" stroke-miterlimit="1.154701" d="M 49.5 125.46875 L 44.5 125.46875 "/>
<path fill="none" stroke-width="1" stroke-linecap="butt" stroke-linejoin="miter" stroke="rgb(0%, 0%, 0%)" stroke-opacity="1" stroke-miterlimit="1.154701" d="M 528.5 363 L 533.5 363 "/>
<path fill="none" stroke-width="1" stroke-linecap="butt" stroke-linejoin="miter" stroke="rgb(0%, 0%, 0%)" stroke-opacity="1" stroke-miterlimit="1.154701" d="M 528.5 189.5 L 533.5 189.5 "/>
<path fill="none" stroke-width="1" stroke-linecap="butt" stroke-linejoin="miter" stroke="rgb(0%, 0%, 0%)" stroke-opacity="1" stroke-miterlimit="1.154701" d="M 528.5 16 L 533.5 16 "/>
<path fill-rule="nonzero" fill="rgb(19.999999%, 55.764699%, 75.843138%)" fill-opacity="1" d="M 138.152344 428 L 158.152344 428 L 158.152344 408 L 138.152344 408 Z M 138.152344 428 "/>
<path fill="none" stroke-width="6" stroke-linecap="butt" stroke-linejoin="miter" stroke="rgb(100%, 64.705884%, 0%)" stroke-opacity="0.8" stroke-miterlimit="2" d="M 279.953125 418 L 299.953125 418 "/>
<g fill="rgb(0%, 0%, 0%)" fill-opacity="1">
<use xlink:href="#glyph-1-12-54225637" x="163.152012" y="422.284"/>
</g>
<g fill="rgb(0%, 0%, 0%)" fill-opacity="1">
<use xlink:href="#glyph-1-13-54225637" x="170.936013" y="422.284"/>
</g>
<g fill="rgb(0%, 0%, 0%)" fill-opacity="1">
<use xlink:href="#glyph-1-14-54225637" x="177.936013" y="422.284"/>
</g>
<g fill="rgb(0%, 0%, 0%)" fill-opacity="1">
<use xlink:href="#glyph-1-15-54225637" x="189.598012" y="422.284"/>
</g>
<g fill="rgb(0%, 0%, 0%)" fill-opacity="1">
<use xlink:href="#glyph-1-16-54225637" x="197.382012" y="422.284"/>
</g>
<g fill="rgb(0%, 0%, 0%)" fill-opacity="1">
<use xlink:href="#glyph-1-8-54225637" x="201.274011" y="422.284"/>
</g>
<g fill="rgb(0%, 0%, 0%)" fill-opacity="1">
<use xlink:href="#glyph-1-17-54225637" x="207.490011" y="422.284"/>
</g>
<g fill="rgb(0%, 0%, 0%)" fill-opacity="1">
<use xlink:href="#glyph-1-18-54225637" x="215.274011" y="422.284"/>
</g>
<g fill="rgb(0%, 0%, 0%)" fill-opacity="1">
<use xlink:href="#glyph-1-17-54225637" x="219.92201" y="422.284"/>
</g>
<g fill="rgb(0%, 0%, 0%)" fill-opacity="1">
<use xlink:href="#glyph-1-8-54225637" x="227.706007" y="422.284"/>
</g>
<g fill="rgb(0%, 0%, 0%)" fill-opacity="1">
<use xlink:href="#glyph-1-19-54225637" x="233.92201" y="422.284"/>
</g>
<g fill="rgb(0%, 0%, 0%)" fill-opacity="1">
<use xlink:href="#glyph-1-20-54225637" x="241.706007" y="422.284"/>
</g>
<g fill="rgb(0%, 0%, 0%)" fill-opacity="1">
<use xlink:href="#glyph-4-0-54225637" x="247.222006" y="422.284"/>
</g>
<g fill="rgb(0%, 0%, 0%)" fill-opacity="1">
<use xlink:href="#glyph-5-0-54225637" x="251.114004" y="422.284"/>
</g>
<g fill="rgb(0%, 0%, 0%)" fill-opacity="1">
<use xlink:href="#glyph-1-21-54225637" x="256.560004" y="422.284"/>
</g>
<g fill="rgb(0%, 0%, 0%)" fill-opacity="1">
<use xlink:href="#glyph-1-22-54225637" x="304.952003" y="422.284"/>
</g>
<g fill="rgb(0%, 0%, 0%)" fill-opacity="1">
<use xlink:href="#glyph-1-19-54225637" x="315.452003" y="422.284"/>
</g>
<g fill="rgb(0%, 0%, 0%)" fill-opacity="1">
<use xlink:href="#glyph-1-19-54225637" x="323.236004" y="422.284"/>
</g>
<g fill="rgb(0%, 0%, 0%)" fill-opacity="1">
<use xlink:href="#glyph-1-23-54225637" x="331.020005" y="422.284"/>
</g>
<g fill="rgb(0%, 0%, 0%)" fill-opacity="1">
<use xlink:href="#glyph-1-24-54225637" x="338.020005" y="422.284"/>
</g>
<g fill="rgb(0%, 0%, 0%)" fill-opacity="1">
<use xlink:href="#glyph-1-14-54225637" x="343.508004" y="422.284"/>
</g>
<g fill="rgb(0%, 0%, 0%)" fill-opacity="1">
<use xlink:href="#glyph-1-13-54225637" x="355.170003" y="422.284"/>
</g>
<g fill="rgb(0%, 0%, 0%)" fill-opacity="1">
<use xlink:href="#glyph-1-16-54225637" x="362.170003" y="422.284"/>
</g>
<g fill="rgb(0%, 0%, 0%)" fill-opacity="1">
<use xlink:href="#glyph-1-25-54225637" x="366.062002" y="422.284"/>
</g>
<g fill="rgb(0%, 0%, 0%)" fill-opacity="1">
<use xlink:href="#glyph-1-26-54225637" x="369.954004" y="422.284"/>
</g>
<g fill="rgb(0%, 0%, 0%)" fill-opacity="1">
<use xlink:href="#glyph-1-8-54225637" x="376.170007" y="422.284"/>
</g>
<g fill="rgb(0%, 0%, 0%)" fill-opacity="1">
<use xlink:href="#glyph-1-17-54225637" x="382.386011" y="422.284"/>
</g>
<g fill="rgb(0%, 0%, 0%)" fill-opacity="1">
<use xlink:href="#glyph-1-18-54225637" x="390.170008" y="422.284"/>
</g>
<g fill="rgb(0%, 0%, 0%)" fill-opacity="1">
<use xlink:href="#glyph-1-17-54225637" x="394.81801" y="422.284"/>
</g>
<g fill="rgb(0%, 0%, 0%)" fill-opacity="1">
<use xlink:href="#glyph-1-8-54225637" x="402.602007" y="422.284"/>
</g>
<g fill="rgb(0%, 0%, 0%)" fill-opacity="1">
<use xlink:href="#glyph-1-19-54225637" x="408.818011" y="422.284"/>
</g>
<g fill="rgb(0%, 0%, 0%)" fill-opacity="1">
<use xlink:href="#glyph-1-20-54225637" x="416.602007" y="422.284"/>
</g>
<g fill="rgb(0%, 0%, 0%)" fill-opacity="1">
<use xlink:href="#glyph-1-25-54225637" x="422.118006" y="422.284"/>
</g>
<g fill="rgb(0%, 0%, 0%)" fill-opacity="1">
<use xlink:href="#glyph-1-27-54225637" x="426.010005" y="422.284"/>
</g>
<g fill="rgb(0%, 0%, 0%)" fill-opacity="1">
<use xlink:href="#glyph-1-21-54225637" x="431.456004" y="422.284"/>
</g>
<path fill="none" stroke-width="1" stroke-linecap="butt" stroke-linejoin="miter" stroke="rgb(0%, 0%, 0%)" stroke-opacity="1" stroke-miterlimit="1.154701" d="M 49.5 363 L 528.5 363 "/>
<path fill="none" stroke-width="1" stroke-linecap="butt" stroke-linejoin="miter" stroke="rgb(0%, 0%, 0%)" stroke-opacity="1" stroke-miterlimit="1.154701" d="M 50 363.5 L 50 15.5 "/>
<path fill="none" stroke-width="1" stroke-linecap="butt" stroke-linejoin="miter" stroke="rgb(0%, 0%, 0%)" stroke-opacity="1" stroke-miterlimit="1.154701" d="M 49.5 16 L 528.5 16 "/>
<path fill="none" stroke-width="1" stroke-linecap="butt" stroke-linejoin="miter" stroke="rgb(0%, 0%, 0%)" stroke-opacity="1" stroke-miterlimit="1.154701" d="M 528 363.5 L 528 15.5 "/>
</svg>
